<svg width="191" height="129" viewBox="0 0 191 129" fill="none" xmlns="http://www.w3.org/2000/svg">
<path d="M11.904 54.968H1.856V53.816L4.864 51.448V32.376L1.472 31.288L2.208 29.848H12.256V31L9.216 33.4V52.44L12.608 53.528L11.904 54.968ZM25.2298 55.064C24.6964 55.2347 24.0458 55.32 23.2778 55.32C21.4431 55.32 20.0991 54.8613 19.2458 53.944C18.4138 53.0053 17.9978 51.5653 17.9978 49.624V40.376H14.5418V39L20.7818 31.832H22.1578V38.904H27.9178V40.376H22.1578V49.88C22.1578 51.5653 22.9898 52.408 24.6538 52.408C25.1018 52.408 25.5284 52.3227 25.9338 52.152C26.3391 51.96 26.8618 51.6293 27.5018 51.16L28.4618 52.504L25.2298 55.064ZM39.7543 55H30.6023V53.848L33.4503 51.576V42.616L30.6023 40.664V39.512L36.2343 37.336H37.6103V52.504L40.4903 53.56L39.7543 55ZM35.4023 27.736C36.1063 27.736 36.6823 27.992 37.1302 28.504C37.5783 28.9947 37.8023 29.6027 37.8023 30.328C37.8023 30.84 37.6423 31.3307 37.3223 31.8C37.0023 32.248 36.5969 32.6107 36.1063 32.888C35.6156 33.144 35.1356 33.272 34.6663 33.272C33.9836 33.272 33.4183 33.0267 32.9703 32.536C32.5223 32.0453 32.2983 31.4267 32.2983 30.68C32.2983 30.168 32.4583 29.688 32.7783 29.24C33.0983 28.7707 33.5036 28.408 33.9943 28.152C34.4849 27.8747 34.9543 27.736 35.4023 27.736ZM63.1968 55.032H56.8928V44.344C56.8928 43.2133 56.7114 42.424 56.3488 41.976C55.9861 41.5067 55.3568 41.272 54.4608 41.272C53.7994 41.272 53.1381 41.3893 52.4768 41.624C51.8154 41.8587 51.0474 42.3067 50.1728 42.968V52.536L53.0528 53.592L52.3168 55.032H43.1648V53.88L46.0128 51.608V42.904L43.1648 41.208V40.056L48.8608 37.336L49.9808 41.4L54.3968 37.88C54.8874 37.7093 55.4848 37.624 56.1888 37.624C57.6821 37.624 58.8661 38.072 59.7408 38.968C60.6154 39.8427 61.0528 41.0373 61.0528 42.552V52.504L63.9328 53.592L63.1968 55.032ZM77.6178 55.032C76.7004 55.224 75.5911 55.32 74.2898 55.32C72.8604 55.32 71.5698 54.9573 70.4178 54.232C69.2871 53.4853 68.3911 52.4827 67.7298 51.224C67.0898 49.9653 66.7698 48.568 66.7698 47.032C66.7698 45.368 67.2711 43.8213 68.2738 42.392C69.2978 40.9413 70.5778 39.7893 72.1138 38.936C73.6498 38.0613 75.1324 37.624 76.5618 37.624C78.6311 37.624 80.2311 38.4347 81.3618 40.056C82.5138 41.6773 83.0791 43.8427 83.0578 46.552H71.2818C71.4311 48.2587 71.9218 49.656 72.7538 50.744C73.5858 51.8107 74.7164 52.344 76.1458 52.344C77.5538 52.344 79.5591 51.3413 82.1618 49.336L83.1218 50.648L77.6178 55.032ZM74.7378 40.536C72.5404 40.536 71.3884 42.0507 71.2818 45.08H78.4818C78.2898 43.992 78.0871 43.1493 77.8738 42.552C77.6818 41.9547 77.3404 41.4747 76.8498 41.112C76.3591 40.728 75.6444 40.536 74.7058 40.536H74.7378ZM97.0885 41.24C96.6405 41.24 96.1712 41.3573 95.6805 41.592C95.1898 41.8267 94.6352 42.2533 94.0165 42.872V52.248L98.5605 53.592L97.8565 55.032H87.0085V53.88L89.8565 51.608V42.904L87.0085 41.208V40.056L92.7045 37.336L93.7605 41.208L96.9925 37.88C97.4832 37.7093 98.0592 37.624 98.7205 37.624C99.5098 37.624 100.193 37.8267 100.769 38.232C101.366 38.6373 101.814 39.2133 102.113 39.96L99.8085 42.84H98.4325C98.3472 42.264 98.1978 41.8587 97.9845 41.624C97.7712 41.368 97.4725 41.24 97.0885 41.24ZM120.595 55H114.259V52.216L110.643 55.064C110.216 55.2347 109.683 55.32 109.043 55.32C107.166 55.32 105.811 54.8613 104.979 53.944C104.147 53.0053 103.731 51.8747 103.731 50.552C103.731 49.784 103.998 49.0267 104.531 48.28C105.064 47.512 105.843 46.7867 106.867 46.104H114.259V44.376C114.259 41.88 112.926 40.632 110.259 40.632C108.915 40.632 107.23 41.3893 105.203 42.904L104.243 41.56L108.819 37.944C109.8 37.7307 110.867 37.624 112.019 37.624C114.046 37.624 115.614 38.1147 116.723 39.096C117.854 40.0773 118.419 41.496 118.419 43.352V52.44L121.299 53.56L120.595 55ZM110.195 52.28C111.454 52.28 112.808 51.7147 114.259 50.584V47.576H108.691C108.435 47.896 108.254 48.216 108.147 48.536C108.04 48.856 107.987 49.208 107.987 49.592C107.987 50.3387 108.19 50.9787 108.595 51.512C109 52.024 109.534 52.28 110.195 52.28ZM133.807 41.24C133.359 41.24 132.89 41.3573 132.399 41.592C131.909 41.8267 131.354 42.2533 130.735 42.872V52.248L135.279 53.592L134.575 55.032H123.727V53.88L126.575 51.608V42.904L123.727 41.208V40.056L129.423 37.336L130.479 41.208L133.711 37.88C134.202 37.7093 134.778 37.624 135.439 37.624C136.229 37.624 136.911 37.8267 137.487 38.232C138.085 38.6373 138.533 39.2133 138.831 39.96L136.527 42.84H135.151C135.066 42.264 134.917 41.8587 134.703 41.624C134.49 41.368 134.191 41.24 133.807 41.24ZM157.881 39.096L149.785 55L142.937 63.448L141.561 62.36C142.734 61.0587 143.63 59.9173 144.249 58.936C144.889 57.9547 145.337 56.9733 145.593 55.992C145.849 55.0107 145.987 53.8587 146.009 52.536L142.073 42.936L139.065 41.176V40.024L144.857 37.336L146.073 42.168L149.913 51.48L154.297 42.488L149.977 39.384L150.681 37.944H157.881V39.096Z" fill="#448099"/>
<path d="M63.112 88.712C64.4987 88.712 65.5867 88.3173 66.376 87.528C67.1867 86.7387 67.592 85.6507 67.592 84.264C67.592 82.3653 67.112 80.808 66.152 79.592C65.2133 78.376 63.8267 77.768 61.992 77.768C60.584 77.768 59.3253 78.1627 58.216 78.952V98.248L63.304 99.592L62.568 101.032H50.856V99.88L53.864 97.512V78.376L50.472 77.288L51.208 75.848H55.24C57.2667 75.848 59.2613 75.784 61.224 75.656C62.7173 75.5707 63.8053 75.528 64.488 75.528C66.024 75.528 67.3787 75.848 68.552 76.488C69.7467 77.128 70.664 78.0027 71.304 79.112C71.9653 80.2 72.296 81.4267 72.296 82.792C72.296 84.2853 71.7413 85.704 70.632 87.048C69.5227 88.3707 68.1147 89.4053 66.408 90.152C64.7013 90.8987 63.0267 91.2293 61.384 91.144L59.912 90.12L60.648 88.68H63.08L63.112 88.712ZM84.2393 101.032H75.0872V99.88L77.9353 97.608V78.344L75.0872 76.36V75.208L80.7193 73.064H82.0953V98.504L84.9753 99.592L84.2393 101.032ZM104.689 101H98.3528V98.216L94.7368 101.064C94.3101 101.235 93.7768 101.32 93.1368 101.32C91.2594 101.32 89.9048 100.861 89.0728 99.944C88.2408 99.0053 87.8248 97.8747 87.8248 96.552C87.8248 95.784 88.0914 95.0267 88.6248 94.28C89.1581 93.512 89.9368 92.7867 90.9608 92.104H98.3528V90.376C98.3528 87.88 97.0194 86.632 94.3528 86.632C93.0088 86.632 91.3234 87.3893 89.2968 88.904L88.3368 87.56L92.9128 83.944C93.8941 83.7307 94.9608 83.624 96.1128 83.624C98.1394 83.624 99.7074 84.1147 100.817 85.096C101.947 86.0773 102.513 87.496 102.513 89.352V98.44L105.393 99.56L104.689 101ZM94.2888 98.28C95.5474 98.28 96.9021 97.7147 98.3528 96.584V93.576H92.7848C92.5288 93.896 92.3474 94.216 92.2408 94.536C92.1341 94.856 92.0808 95.208 92.0808 95.592C92.0808 96.3387 92.2834 96.9787 92.6888 97.512C93.0941 98.024 93.6274 98.28 94.2888 98.28ZM127.853 101.032H121.549V90.344C121.549 89.2133 121.368 88.424 121.005 87.976C120.642 87.5067 120.013 87.272 119.117 87.272C118.456 87.272 117.794 87.3893 117.133 87.624C116.472 87.8587 115.704 88.3067 114.829 88.968V98.536L117.709 99.592L116.973 101.032H107.821V99.88L110.669 97.608V88.904L107.821 87.208V86.056L113.517 83.336L114.637 87.4L119.053 83.88C119.544 83.7093 120.141 83.624 120.845 83.624C122.338 83.624 123.522 84.072 124.397 84.968C125.272 85.8427 125.709 87.0373 125.709 88.552V98.504L128.589 99.592L127.853 101.032ZM151.009 101.032H144.705V90.344C144.705 89.2133 144.524 88.424 144.161 87.976C143.799 87.5067 143.169 87.272 142.273 87.272C141.612 87.272 140.951 87.3893 140.289 87.624C139.628 87.8587 138.86 88.3067 137.985 88.968V98.536L140.865 99.592L140.129 101.032H130.977V99.88L133.825 97.608V88.904L130.977 87.208V86.056L136.673 83.336L137.793 87.4L142.209 83.88C142.7 83.7093 143.297 83.624 144.001 83.624C145.495 83.624 146.679 84.072 147.553 84.968C148.428 85.8427 148.865 87.0373 148.865 88.552V98.504L151.745 99.592L151.009 101.032ZM165.43 101.032C164.513 101.224 163.404 101.32 162.102 101.32C160.673 101.32 159.382 100.957 158.23 100.232C157.1 99.4853 156.204 98.4827 155.542 97.224C154.902 95.9653 154.582 94.568 154.582 93.032C154.582 91.368 155.084 89.8213 156.086 88.392C157.11 86.9413 158.39 85.7893 159.926 84.936C161.462 84.0613 162.945 83.624 164.374 83.624C166.444 83.624 168.044 84.4347 169.174 86.056C170.326 87.6773 170.892 89.8427 170.87 92.552H159.094C159.244 94.2587 159.734 95.656 160.566 96.744C161.398 97.8107 162.529 98.344 163.958 98.344C165.366 98.344 167.372 97.3413 169.974 95.336L170.934 96.648L165.43 101.032ZM162.55 86.536C160.353 86.536 159.201 88.0507 159.094 91.08H166.294C166.102 89.992 165.9 89.1493 165.686 88.552C165.494 87.9547 165.153 87.4747 164.662 87.112C164.172 86.728 163.457 86.536 162.518 86.536H162.55ZM184.901 87.24C184.453 87.24 183.984 87.3573 183.493 87.592C183.002 87.8267 182.448 88.2533 181.829 88.872V98.248L186.373 99.592L185.669 101.032H174.821V99.88L177.669 97.608V88.904L174.821 87.208V86.056L180.517 83.336L181.573 87.208L184.805 83.88C185.296 83.7093 185.872 83.624 186.533 83.624C187.322 83.624 188.005 83.8267 188.581 84.232C189.178 84.6373 189.626 85.2133 189.925 85.96L187.621 88.84H186.245C186.16 88.264 186.01 87.8587 185.797 87.624C185.584 87.368 185.285 87.24 184.901 87.24Z" fill="#448099"/>
</svg>
