<svg width="12" height="16" viewBox="0 0 12 16" fill="none" xmlns="http://www.w3.org/2000/svg">
<path fill-rule="evenodd" clip-rule="evenodd" d="M6.00003 2.42022L5.28303 1.68322C4.15303 0.522217 2.04003 0.906218 1.27303 2.40322C0.923025 3.08822 0.822025 4.11022 1.50903 5.46522C2.16003 6.75322 3.52003 8.32022 6.00003 10.0422C8.47903 8.31922 9.83902 6.75222 10.491 5.46522C11.178 4.11022 11.078 3.08822 10.727 2.40422C9.96003 0.906217 7.84703 0.522217 6.71703 1.68322L6.00003 2.42022ZM5.51003 10.9202C-5.26997 3.48022 2.51003 -2.23478 5.86903 0.857217C5.91403 0.898217 5.95803 0.941217 6.00103 0.986217C6.04403 0.941217 6.08803 0.898217 6.13303 0.857217C9.49303 -2.23478 17.27 3.48122 6.49003 10.9202L6.72503 11.3882C6.73973 11.4176 6.7485 11.4497 6.75083 11.4825C6.75317 11.5153 6.74901 11.5482 6.73861 11.5794C6.72821 11.6106 6.71177 11.6395 6.69022 11.6643C6.66867 11.6892 6.64244 11.7095 6.61303 11.7242C6.58361 11.7389 6.55158 11.7477 6.51878 11.75C6.48597 11.7524 6.45303 11.7482 6.42183 11.7378C6.39063 11.7274 6.36178 11.711 6.33694 11.6894C6.31209 11.6679 6.29173 11.6416 6.27703 11.6122L6.26903 11.5952C6.27703 11.7052 6.28903 11.7972 6.30603 11.8852C6.36003 12.1552 6.46703 12.3732 6.72503 12.8882C7.01303 13.4662 6.96002 14.0382 6.80102 14.5172C6.64402 14.9862 6.37903 15.3842 6.21303 15.6322L6.20902 15.6392C6.19077 15.6665 6.16732 15.69 6.14 15.7082C6.11268 15.7265 6.08204 15.7392 6.04982 15.7456C6.01759 15.752 5.98443 15.752 5.9522 15.7456C5.91998 15.7392 5.88934 15.7265 5.86203 15.7082C5.83471 15.69 5.81126 15.6665 5.79301 15.6392C5.77476 15.6119 5.76207 15.5812 5.75566 15.549C5.74925 15.5168 5.74925 15.4836 5.75567 15.4514C5.76208 15.4192 5.77477 15.3885 5.79303 15.3612C5.96103 15.1092 6.19303 14.7612 6.32603 14.3582C6.45903 13.9622 6.48903 13.5342 6.27703 13.1122L6.26403 13.0842C6.02403 12.6042 5.88403 12.3262 5.81603 11.9822C5.78801 11.8336 5.77063 11.6833 5.76403 11.5322L5.72403 11.6122C5.70947 11.6418 5.6892 11.6683 5.66438 11.69C5.63957 11.7117 5.61069 11.7284 5.57942 11.7389C5.54815 11.7494 5.51511 11.7536 5.4822 11.7513C5.44928 11.749 5.41715 11.7402 5.38765 11.7255C5.35816 11.7107 5.33188 11.6902 5.31033 11.6652C5.28878 11.6402 5.2724 11.6112 5.26211 11.5799C5.25183 11.5485 5.24785 11.5154 5.25041 11.4826C5.25297 11.4497 5.26202 11.4176 5.27703 11.3882L5.51203 10.9202H5.51003ZM4.01303 2.06022C3.36403 1.88022 2.53003 2.14322 2.16303 2.85822C2.03203 3.11622 1.91803 3.54722 2.08303 4.19322C2.14603 4.43722 2.49703 4.39122 2.57003 4.15022C2.78003 3.45322 3.19702 2.70322 3.92902 2.45822C4.14602 2.38522 4.23303 2.12122 4.01303 2.06022Z" fill="black"/>
</svg>
