<svg width="22" height="19" viewBox="0 0 22 19" fill="none" xmlns="http://www.w3.org/2000/svg">
<path fill-rule="evenodd" clip-rule="evenodd" d="M21.9999 0.569866C22.0011 0.495826 21.9849 0.422314 21.9523 0.353537C21.8861 0.214941 21.757 0.104096 21.5935 0.0453736C21.4301 -0.0133485 21.2455 -0.01514 21.0804 0.0403929L17.7272 1.16681C17.6256 1.20078 17.5355 1.25508 17.4647 1.32497C17.3939 1.39486 17.3445 1.47822 17.3208 1.56782L16.6984 4.06283C15.899 3.97047 14.9909 3.91978 14.0359 3.91978C13.2824 3.91978 12.5585 3.95135 11.8936 4.00982C12.4198 4.30355 12.9095 4.65498 13.3539 5.05554C13.5765 5.04939 13.8042 5.04619 14.0359 5.04619C14.8286 5.04427 15.6207 5.08452 16.4073 5.16672L16.1659 6.07687C15.62 6.12951 15.017 6.16181 14.3782 6.17034C14.6422 6.51839 14.8783 6.88871 15.0832 7.27798C15.6922 7.25328 16.2699 7.20757 16.799 7.14471C17.2005 7.09798 17.599 7.03294 17.9927 6.95209C18.1895 6.91114 18.3841 6.86341 18.5762 6.80904L17.4334 15.8542C17.4173 15.9905 17.3529 16.0637 17.2966 16.0964C16.8178 16.3768 15.73 16.8736 14.0265 16.8736C13.8267 16.8736 13.6353 16.8667 13.4524 16.8542C13.0624 17.2176 12.6361 17.5424 12.1795 17.8227C12.7148 17.9301 13.3306 18 14.0265 18C16.0599 18 17.4093 17.403 18.0638 17.02C18.2639 16.8982 18.4302 16.7415 18.5515 16.5607C18.6728 16.3799 18.7462 16.1792 18.7667 15.9724L20.057 5.75809C20.0664 5.71078 20.0718 5.66122 20.0718 5.6094C20.0718 5.1318 19.6265 4.83781 19.3206 4.68574C18.9759 4.51452 18.5212 4.37935 18.0169 4.27234L18.5534 2.10174L21.5767 1.08571C21.6587 1.0584 21.7334 1.01778 21.7966 0.966189C21.8599 0.914594 21.9104 0.853033 21.9453 0.785027C21.9802 0.717021 21.9987 0.643906 21.9999 0.569866ZM17.7245 5.37285C18.0033 5.4286 18.2748 5.50785 18.5346 5.6094C18.3388 5.69163 18.0491 5.77837 17.6655 5.85947L17.5917 5.87411L17.7245 5.37285Z" fill="black"/>
<circle cx="8" cy="11" r="7.35" stroke="black" stroke-width="1.3"/>
<circle cx="8" cy="11.0004" r="2.25909" stroke="black" stroke-width="1.3"/>
</svg>
