<svg width="151" height="56" viewBox="0 0 151 56" fill="none" xmlns="http://www.w3.org/2000/svg">
<path d="M0.676136 4.91193V3.81818H8.3125V4.91193H5.1108V14H3.87784V4.91193H0.676136ZM12.0511 14.1591C11.3617 14.1591 10.7569 13.995 10.2365 13.6669C9.71946 13.3388 9.3151 12.8797 9.02344 12.2898C8.73509 11.6998 8.59091 11.0104 8.59091 10.2216C8.59091 9.42614 8.73509 8.73177 9.02344 8.13849C9.3151 7.54522 9.71946 7.08452 10.2365 6.75639C10.7569 6.42827 11.3617 6.2642 12.0511 6.2642C12.7405 6.2642 13.3438 6.42827 13.8608 6.75639C14.3812 7.08452 14.7855 7.54522 15.0739 8.13849C15.3655 8.73177 15.5114 9.42614 15.5114 10.2216C15.5114 11.0104 15.3655 11.6998 15.0739 12.2898C14.7855 12.8797 14.3812 13.3388 13.8608 13.6669C13.3438 13.995 12.7405 14.1591 12.0511 14.1591ZM12.0511 13.1051C12.5748 13.1051 13.0057 12.9709 13.3438 12.7024C13.6818 12.4339 13.9321 12.081 14.0945 11.6435C14.2569 11.206 14.3381 10.732 14.3381 10.2216C14.3381 9.71117 14.2569 9.23556 14.0945 8.79474C13.9321 8.35393 13.6818 7.99763 13.3438 7.72585C13.0057 7.45407 12.5748 7.31818 12.0511 7.31818C11.5275 7.31818 11.0966 7.45407 10.7585 7.72585C10.4205 7.99763 10.1702 8.35393 10.0078 8.79474C9.84541 9.23556 9.7642 9.71117 9.7642 10.2216C9.7642 10.732 9.84541 11.206 10.0078 11.6435C10.1702 12.081 10.4205 12.4339 10.7585 12.7024C11.0966 12.9709 11.5275 13.1051 12.0511 13.1051ZM21.399 14V3.81818H22.5723V7.5767H22.6717C22.7579 7.44413 22.8772 7.27509 23.0297 7.0696C23.1854 6.8608 23.4075 6.67519 23.6958 6.51278C23.9875 6.34706 24.3819 6.2642 24.8791 6.2642C25.5221 6.2642 26.0888 6.42495 26.5794 6.74645C27.0699 7.06794 27.4527 7.52367 27.7278 8.11364C28.0029 8.7036 28.1404 9.39962 28.1404 10.2017C28.1404 11.0104 28.0029 11.7114 27.7278 12.3047C27.4527 12.8946 27.0716 13.352 26.5843 13.6768C26.0971 13.9983 25.5353 14.1591 24.899 14.1591C24.4084 14.1591 24.0157 14.0779 23.7207 13.9155C23.4257 13.7498 23.1987 13.5625 23.0396 13.3537C22.8805 13.1416 22.7579 12.9659 22.6717 12.8267H22.5325V14H21.399ZM22.5524 10.1818C22.5524 10.7585 22.6369 11.2673 22.8059 11.7081C22.975 12.1456 23.2219 12.4886 23.5467 12.7372C23.8715 12.9825 24.2692 13.1051 24.7399 13.1051C25.2304 13.1051 25.6397 12.9759 25.9679 12.7173C26.2993 12.4555 26.5479 12.1042 26.7136 11.6634C26.8826 11.2192 26.9672 10.7254 26.9672 10.1818C26.9672 9.64489 26.8843 9.16098 26.7186 8.73011C26.5562 8.29593 26.3092 7.95289 25.9778 7.70099C25.6497 7.44579 25.237 7.31818 24.7399 7.31818C24.2626 7.31818 23.8616 7.43916 23.5368 7.68111C23.2119 7.91974 22.9667 8.2545 22.801 8.68537C22.6352 9.11293 22.5524 9.61174 22.5524 10.1818ZM33.1369 14.1591C32.4011 14.1591 31.7664 13.9967 31.2328 13.6719C30.7025 13.3438 30.2931 12.8864 30.0048 12.2997C29.7198 11.7098 29.5772 11.0237 29.5772 10.2415C29.5772 9.45928 29.7198 8.76989 30.0048 8.1733C30.2931 7.57339 30.6942 7.10606 31.2079 6.77131C31.725 6.43324 32.3282 6.2642 33.0176 6.2642C33.4153 6.2642 33.8081 6.33049 34.1958 6.46307C34.5836 6.59564 34.9366 6.81108 35.2548 7.10938C35.573 7.40436 35.8265 7.79545 36.0154 8.28267C36.2044 8.76989 36.2988 9.36979 36.2988 10.0824V10.5795H30.4125V9.56534H35.1056C35.1056 9.13447 35.0195 8.75 34.8471 8.41193C34.6781 8.07386 34.4361 7.80705 34.1213 7.61151C33.8097 7.41596 33.4418 7.31818 33.0176 7.31818C32.5502 7.31818 32.1459 7.43419 31.8045 7.66619C31.4664 7.89489 31.2063 8.19318 31.024 8.56108C30.8417 8.92898 30.7505 9.32339 30.7505 9.74432V10.4205C30.7505 10.9972 30.85 11.486 31.0488 11.8871C31.251 12.2848 31.5311 12.5881 31.889 12.7969C32.247 13.0024 32.6629 13.1051 33.1369 13.1051C33.4451 13.1051 33.7235 13.062 33.9721 12.9759C34.224 12.8864 34.4411 12.7538 34.6234 12.5781C34.8057 12.3991 34.9466 12.1771 35.046 11.9119L36.1795 12.2301C36.0602 12.6146 35.8597 12.9527 35.5779 13.2443C35.2962 13.5327 34.9482 13.758 34.5339 13.9205C34.1196 14.0795 33.6539 14.1591 33.1369 14.1591ZM47.4302 8.07386L46.3762 8.37216C46.31 8.1965 46.2122 8.0258 46.0829 7.86009C45.957 7.69105 45.7846 7.55185 45.5659 7.44247C45.3471 7.3331 45.0671 7.27841 44.7257 7.27841C44.2583 7.27841 43.8689 7.38613 43.5574 7.60156C43.2491 7.81368 43.095 8.08381 43.095 8.41193C43.095 8.7036 43.2011 8.93395 43.4132 9.10298C43.6253 9.27202 43.9567 9.41288 44.4075 9.52557L45.541 9.80398C46.2238 9.9697 46.7325 10.2232 47.0673 10.5646C47.402 10.9027 47.5694 11.3385 47.5694 11.8722C47.5694 12.3097 47.4435 12.7008 47.1916 13.0455C46.943 13.3902 46.595 13.6619 46.1475 13.8608C45.7001 14.0597 45.1797 14.1591 44.5865 14.1591C43.8076 14.1591 43.1629 13.9901 42.6525 13.652C42.1421 13.3139 41.819 12.8201 41.6831 12.1705L42.7967 11.892C42.9028 12.303 43.1033 12.6113 43.3983 12.8168C43.6966 13.0223 44.086 13.125 44.5666 13.125C45.1135 13.125 45.5476 13.009 45.8691 12.777C46.194 12.5417 46.3564 12.2599 46.3564 11.9318C46.3564 11.6667 46.2636 11.4446 46.0779 11.2656C45.8923 11.0833 45.6073 10.9474 45.2228 10.858L43.9501 10.5597C43.2508 10.3939 42.737 10.1371 42.4089 9.78906C42.0841 9.43774 41.9217 8.99858 41.9217 8.47159C41.9217 8.04072 42.0427 7.65956 42.2846 7.32812C42.5299 6.99669 42.863 6.73651 43.2839 6.54758C43.7082 6.35866 44.1887 6.2642 44.7257 6.2642C45.4814 6.2642 46.0746 6.42992 46.5055 6.76136C46.9397 7.0928 47.2479 7.5303 47.4302 8.07386ZM52.5373 14.1591C51.8015 14.1591 51.1668 13.9967 50.6332 13.6719C50.1029 13.3438 49.6935 12.8864 49.4052 12.2997C49.1201 11.7098 48.9776 11.0237 48.9776 10.2415C48.9776 9.45928 49.1201 8.76989 49.4052 8.1733C49.6935 7.57339 50.0946 7.10606 50.6083 6.77131C51.1254 6.43324 51.7286 6.2642 52.418 6.2642C52.8157 6.2642 53.2085 6.33049 53.5962 6.46307C53.984 6.59564 54.337 6.81108 54.6552 7.10938C54.9734 7.40436 55.2269 7.79545 55.4158 8.28267C55.6048 8.76989 55.6992 9.36979 55.6992 10.0824V10.5795H49.8129V9.56534H54.506C54.506 9.13447 54.4199 8.75 54.2475 8.41193C54.0785 8.07386 53.8365 7.80705 53.5217 7.61151C53.2101 7.41596 52.8422 7.31818 52.418 7.31818C51.9506 7.31818 51.5463 7.43419 51.2049 7.66619C50.8668 7.89489 50.6067 8.19318 50.4244 8.56108C50.2421 8.92898 50.1509 9.32339 50.1509 9.74432V10.4205C50.1509 10.9972 50.2504 11.486 50.4492 11.8871C50.6514 12.2848 50.9315 12.5881 51.2894 12.7969C51.6474 13.0024 52.0633 13.1051 52.5373 13.1051C52.8455 13.1051 53.1239 13.062 53.3725 12.9759C53.6244 12.8864 53.8415 12.7538 54.0238 12.5781C54.2061 12.3991 54.3469 12.1771 54.4464 11.9119L55.5799 12.2301C55.4606 12.6146 55.2601 12.9527 54.9783 13.2443C54.6966 13.5327 54.3486 13.758 53.9343 13.9205C53.52 14.0795 53.0543 14.1591 52.5373 14.1591ZM60.805 6.36364V7.35795H56.8477V6.36364H60.805ZM58.0011 4.53409H59.1744V11.8125C59.1744 12.1439 59.2224 12.3925 59.3185 12.5582C59.418 12.7206 59.5439 12.83 59.6964 12.8864C59.8522 12.9394 60.0162 12.9659 60.1886 12.9659C60.3178 12.9659 60.4239 12.9593 60.5067 12.946C60.5896 12.9295 60.6559 12.9162 60.7056 12.9062L60.9442 13.9602C60.8647 13.9901 60.7537 14.0199 60.6112 14.0497C60.4686 14.0829 60.288 14.0994 60.0692 14.0994C59.7378 14.0994 59.413 14.0282 59.0948 13.8857C58.7799 13.7431 58.5181 13.526 58.3093 13.2344C58.1038 12.9427 58.0011 12.5748 58.0011 12.1307V4.53409Z" fill="black"/>
<path d="M31.233 45V34.8182H32.4659V39.3523H37.8949V34.8182H39.1278V45H37.8949V40.446H32.4659V45H31.233ZM44.5394 45.1591C43.85 45.1591 43.2451 44.995 42.7248 44.6669C42.2077 44.3388 41.8034 43.8797 41.5117 43.2898C41.2234 42.6998 41.0792 42.0104 41.0792 41.2216C41.0792 40.4261 41.2234 39.7318 41.5117 39.1385C41.8034 38.5452 42.2077 38.0845 42.7248 37.7564C43.2451 37.4283 43.85 37.2642 44.5394 37.2642C45.2288 37.2642 45.832 37.4283 46.3491 37.7564C46.8694 38.0845 47.2738 38.5452 47.5621 39.1385C47.8538 39.7318 47.9996 40.4261 47.9996 41.2216C47.9996 42.0104 47.8538 42.6998 47.5621 43.2898C47.2738 43.8797 46.8694 44.3388 46.3491 44.6669C45.832 44.995 45.2288 45.1591 44.5394 45.1591ZM44.5394 44.1051C45.0631 44.1051 45.494 43.9709 45.832 43.7024C46.1701 43.4339 46.4203 43.081 46.5827 42.6435C46.7451 42.206 46.8263 41.732 46.8263 41.2216C46.8263 40.7112 46.7451 40.2356 46.5827 39.7947C46.4203 39.3539 46.1701 38.9976 45.832 38.7259C45.494 38.4541 45.0631 38.3182 44.5394 38.3182C44.0157 38.3182 43.5849 38.4541 43.2468 38.7259C42.9087 38.9976 42.6585 39.3539 42.4961 39.7947C42.3337 40.2356 42.2525 40.7112 42.2525 41.2216C42.2525 41.732 42.3337 42.206 42.4961 42.6435C42.6585 43.081 42.9087 43.4339 43.2468 43.7024C43.5849 43.9709 44.0157 44.1051 44.5394 44.1051ZM53.1117 37.3636V38.358H49.1543V37.3636H53.1117ZM50.3077 35.5341H51.481V42.8125C51.481 43.1439 51.5291 43.3925 51.6252 43.5582C51.7246 43.7206 51.8506 43.83 52.003 43.8864C52.1588 43.9394 52.3229 43.9659 52.4952 43.9659C52.6245 43.9659 52.7305 43.9593 52.8134 43.946C52.8962 43.9295 52.9625 43.9162 53.0123 43.9062L53.2509 44.9602C53.1713 44.9901 53.0603 45.0199 52.9178 45.0497C52.7753 45.0829 52.5946 45.0994 52.3759 45.0994C52.0444 45.0994 51.7196 45.0282 51.4015 44.8857C51.0866 44.7431 50.8248 44.526 50.6159 44.2344C50.4105 43.9427 50.3077 43.5748 50.3077 43.1307V35.5341ZM57.9963 45.1591C57.2605 45.1591 56.6258 44.9967 56.0922 44.6719C55.5618 44.3438 55.1525 43.8864 54.8642 43.2997C54.5791 42.7098 54.4366 42.0237 54.4366 41.2415C54.4366 40.4593 54.5791 39.7699 54.8642 39.1733C55.1525 38.5734 55.5536 38.1061 56.0673 37.7713C56.5843 37.4332 57.1876 37.2642 57.877 37.2642C58.2747 37.2642 58.6674 37.3305 59.0552 37.4631C59.443 37.5956 59.796 37.8111 60.1142 38.1094C60.4324 38.4044 60.6859 38.7955 60.8748 39.2827C61.0637 39.7699 61.1582 40.3698 61.1582 41.0824V41.5795H55.2718V40.5653H59.965C59.965 40.1345 59.8788 39.75 59.7065 39.4119C59.5375 39.0739 59.2955 38.8071 58.9806 38.6115C58.6691 38.416 58.3012 38.3182 57.877 38.3182C57.4096 38.3182 57.0053 38.4342 56.6639 38.6662C56.3258 38.8949 56.0656 39.1932 55.8833 39.5611C55.7011 39.929 55.6099 40.3234 55.6099 40.7443V41.4205C55.6099 41.9972 55.7093 42.486 55.9082 42.8871C56.1104 43.2848 56.3904 43.5881 56.7484 43.7969C57.1064 44.0024 57.5223 44.1051 57.9963 44.1051C58.3045 44.1051 58.5829 44.062 58.8315 43.9759C59.0834 43.8864 59.3005 43.7538 59.4828 43.5781C59.6651 43.3991 59.8059 43.1771 59.9054 42.9119L61.0389 43.2301C60.9196 43.6146 60.719 43.9527 60.4373 44.2443C60.1556 44.5327 59.8076 44.758 59.3933 44.9205C58.979 45.0795 58.5133 45.1591 57.9963 45.1591ZM64.1163 34.8182V45H62.943V34.8182H64.1163ZM73.305 45.1591C72.6156 45.1591 72.0108 44.995 71.4904 44.6669C70.9734 44.3388 70.569 43.8797 70.2773 43.2898C69.989 42.6998 69.8448 42.0104 69.8448 41.2216C69.8448 40.4261 69.989 39.7318 70.2773 39.1385C70.569 38.5452 70.9734 38.0845 71.4904 37.7564C72.0108 37.4283 72.6156 37.2642 73.305 37.2642C73.9944 37.2642 74.5977 37.4283 75.1147 37.7564C75.6351 38.0845 76.0394 38.5452 76.3278 39.1385C76.6194 39.7318 76.7653 40.4261 76.7653 41.2216C76.7653 42.0104 76.6194 42.6998 76.3278 43.2898C76.0394 43.8797 75.6351 44.3388 75.1147 44.6669C74.5977 44.995 73.9944 45.1591 73.305 45.1591ZM73.305 44.1051C73.8287 44.1051 74.2596 43.9709 74.5977 43.7024C74.9357 43.4339 75.186 43.081 75.3484 42.6435C75.5108 42.206 75.592 41.732 75.592 41.2216C75.592 40.7112 75.5108 40.2356 75.3484 39.7947C75.186 39.3539 74.9357 38.9976 74.5977 38.7259C74.2596 38.4541 73.8287 38.3182 73.305 38.3182C72.7814 38.3182 72.3505 38.4541 72.0124 38.7259C71.6744 38.9976 71.4241 39.3539 71.2617 39.7947C71.0993 40.2356 71.0181 40.7112 71.0181 41.2216C71.0181 41.732 71.0993 42.206 71.2617 42.6435C71.4241 43.081 71.6744 43.4339 72.0124 43.7024C72.3505 43.9709 72.7814 44.1051 73.305 44.1051ZM78.5563 45V37.3636H79.6898V38.517H79.7694C79.9086 38.1392 80.1605 37.8326 80.525 37.5973C80.8896 37.362 81.3006 37.2443 81.758 37.2443C81.8442 37.2443 81.9519 37.246 82.0811 37.2493C82.2104 37.2526 82.3082 37.2576 82.3745 37.2642V38.4574C82.3347 38.4474 82.2435 38.4325 82.101 38.4126C81.9618 38.3894 81.8143 38.3778 81.6586 38.3778C81.2873 38.3778 80.9559 38.4557 80.6642 38.6115C80.3759 38.764 80.1472 38.9761 79.9782 39.2479C79.8124 39.5163 79.7296 39.8229 79.7296 40.1676V45H78.5563ZM87.8619 45V34.8182H89.0948V39.3523H94.5238V34.8182H95.7567V45H94.5238V40.446H89.0948V45H87.8619ZM101.168 45.1591C100.479 45.1591 99.8741 44.995 99.3537 44.6669C98.8366 44.3388 98.4323 43.8797 98.1406 43.2898C97.8523 42.6998 97.7081 42.0104 97.7081 41.2216C97.7081 40.4261 97.8523 39.7318 98.1406 39.1385C98.4323 38.5452 98.8366 38.0845 99.3537 37.7564C99.8741 37.4283 100.479 37.2642 101.168 37.2642C101.858 37.2642 102.461 37.4283 102.978 37.7564C103.498 38.0845 103.903 38.5452 104.191 39.1385C104.483 39.7318 104.629 40.4261 104.629 41.2216C104.629 42.0104 104.483 42.6998 104.191 43.2898C103.903 43.8797 103.498 44.3388 102.978 44.6669C102.461 44.995 101.858 45.1591 101.168 45.1591ZM101.168 44.1051C101.692 44.1051 102.123 43.9709 102.461 43.7024C102.799 43.4339 103.049 43.081 103.212 42.6435C103.374 42.206 103.455 41.732 103.455 41.2216C103.455 40.7112 103.374 40.2356 103.212 39.7947C103.049 39.3539 102.799 38.9976 102.461 38.7259C102.123 38.4541 101.692 38.3182 101.168 38.3182C100.645 38.3182 100.214 38.4541 99.8757 38.7259C99.5376 38.9976 99.2874 39.3539 99.125 39.7947C98.9626 40.2356 98.8814 40.7112 98.8814 41.2216C98.8814 41.732 98.9626 42.206 99.125 42.6435C99.2874 43.081 99.5376 43.4339 99.8757 43.7024C100.214 43.9709 100.645 44.1051 101.168 44.1051ZM106.42 45V37.3636H107.553V38.5568H107.653C107.812 38.1491 108.068 37.8326 108.423 37.6072C108.778 37.3786 109.204 37.2642 109.701 37.2642C110.205 37.2642 110.624 37.3786 110.959 37.6072C111.297 37.8326 111.56 38.1491 111.749 38.5568H111.829C112.024 38.1624 112.318 37.8492 112.709 37.6172C113.1 37.3819 113.569 37.2642 114.116 37.2642C114.798 37.2642 115.357 37.478 115.791 37.9055C116.225 38.3298 116.442 38.991 116.442 39.8892V45H115.269V39.8892C115.269 39.3258 115.115 38.9231 114.807 38.6811C114.498 38.4392 114.135 38.3182 113.718 38.3182C113.181 38.3182 112.765 38.4806 112.47 38.8054C112.175 39.1269 112.028 39.5346 112.028 40.0284V45H110.834V39.7699C110.834 39.3357 110.693 38.986 110.412 38.7209C110.13 38.4524 109.767 38.3182 109.323 38.3182C109.018 38.3182 108.733 38.3994 108.468 38.5618C108.206 38.7242 107.994 38.9496 107.831 39.2379C107.672 39.523 107.593 39.8527 107.593 40.2273V45H106.42ZM121.789 45.1591C121.053 45.1591 120.419 44.9967 119.885 44.6719C119.355 44.3438 118.945 43.8864 118.657 43.2997C118.372 42.7098 118.23 42.0237 118.23 41.2415C118.23 40.4593 118.372 39.7699 118.657 39.1733C118.945 38.5734 119.347 38.1061 119.86 37.7713C120.377 37.4332 120.981 37.2642 121.67 37.2642C122.068 37.2642 122.46 37.3305 122.848 37.4631C123.236 37.5956 123.589 37.8111 123.907 38.1094C124.225 38.4044 124.479 38.7955 124.668 39.2827C124.857 39.7699 124.951 40.3698 124.951 41.0824V41.5795H119.065V40.5653H123.758C123.758 40.1345 123.672 39.75 123.499 39.4119C123.33 39.0739 123.088 38.8071 122.774 38.6115C122.462 38.416 122.094 38.3182 121.67 38.3182C121.203 38.3182 120.798 38.4342 120.457 38.6662C120.119 38.8949 119.859 39.1932 119.676 39.5611C119.494 39.929 119.403 40.3234 119.403 40.7443V41.4205C119.403 41.9972 119.502 42.486 119.701 42.8871C119.903 43.2848 120.183 43.5881 120.541 43.7969C120.899 44.0024 121.315 44.1051 121.789 44.1051C122.097 44.1051 122.376 44.062 122.624 43.9759C122.876 43.8864 123.093 43.7538 123.276 43.5781C123.458 43.3991 123.599 43.1771 123.698 42.9119L124.832 43.2301C124.713 43.6146 124.512 43.9527 124.23 44.2443C123.949 44.5327 123.601 44.758 123.186 44.9205C122.772 45.0795 122.306 45.1591 121.789 45.1591Z" fill="black"/>
<path d="M6 33.5L77.6712 14L150 33.5H136.849V55H17.1781V33.5H6Z" stroke="black"/>
</svg>
