<svg width="392" height="392" viewBox="0 0 392 392" fill="none" xmlns="http://www.w3.org/2000/svg">
<rect width="392" height="392" fill="white"/>
<path fill-rule="evenodd" clip-rule="evenodd" d="M260.31 172.8H130.31V170.8H260.31V172.8Z" fill="#F4DF24"/>
<path fill-rule="evenodd" clip-rule="evenodd" d="M264.31 218.3H128.31V216.3H264.31V218.3Z" fill="#64B117"/>
<path fill-rule="evenodd" clip-rule="evenodd" d="M258.31 225.3H134.31V223.8H258.31V225.3Z" fill="#E86339"/>
<path fill-rule="evenodd" clip-rule="evenodd" d="M131.551 180.649L133.069 181.951L122.62 194.121L133.078 206.659L131.542 207.941L120 194.102L131.551 180.649Z" fill="#B88F25"/>
<path fill-rule="evenodd" clip-rule="evenodd" d="M261.569 207.951L260.051 206.649L270.5 194.479L260.042 181.941L261.578 180.659L273.12 194.498L261.569 207.951Z" fill="#B88F25"/>
<path fill-rule="evenodd" clip-rule="evenodd" d="M248.349 205.025L254.349 184.025L256.272 184.575L250.272 205.575L248.349 205.025Z" fill="#B88F25"/>
<path fill-rule="evenodd" clip-rule="evenodd" d="M151.154 141.232C141.2 148.061 137.059 156.672 138.626 164.444L135.098 165.156C133.141 155.456 138.473 145.566 149.117 138.264C159.789 130.942 176.031 126 196.779 126C219.303 126 235.457 131.326 245.525 138.887C255.587 146.444 259.676 156.375 257.434 165.241L253.944 164.359C255.73 157.295 252.63 148.725 243.363 141.765C234.101 134.809 218.786 129.6 196.779 129.6C176.558 129.6 161.079 134.422 151.154 141.232Z" fill="#D7AE43"/>
<path fill-rule="evenodd" clip-rule="evenodd" d="M251.356 241.74C252.844 239.425 253.51 236.277 253.51 231.8H257.11C257.11 236.554 256.42 240.521 254.384 243.687C252.318 246.898 249.045 249.018 244.455 250.442C239.9 251.856 233.891 252.634 226.127 253.068C218.344 253.504 208.673 253.6 196.744 253.6C184.162 253.6 174.111 253.485 166.124 253.026C158.158 252.567 152.116 251.761 147.609 250.325C143.059 248.875 139.913 246.731 137.977 243.514C136.081 240.363 135.51 236.442 135.51 231.8H139.11C139.11 236.237 139.677 239.356 141.062 241.658C142.407 243.893 144.684 245.614 148.702 246.895C152.763 248.189 158.434 248.977 166.33 249.432C174.204 249.885 184.163 250 196.744 250C208.675 250 218.255 249.904 225.926 249.474C233.617 249.043 239.267 248.283 243.389 247.004C247.475 245.736 249.896 244.01 251.356 241.74Z" fill="#D7AE43"/>
<path d="M235.916 205.14V207.3H218.852V205.14L232.784 184.26H218.78V182.1H235.628V184.404L221.876 205.14H235.916Z" fill="#B88F25"/>
<path d="M208.246 182.1H210.838V207.3H208.246V182.1Z" fill="#B88F25"/>
<path d="M201.633 205.14V207.3H186.801V182.1H189.393V205.14H201.633Z" fill="#B88F25"/>
<path d="M180.66 205.14C180.66 206.004 180.528 206.58 180.264 206.868C180.024 207.156 179.532 207.3 178.788 207.3H165.576V182.1H180.624V184.26H168.168V193.332H178.896V195.492H168.168V205.14H180.66Z" fill="#B88F25"/>
<path d="M147.998 184.26V193.152H158.69V195.312H147.998V207.3H145.406V182.1H160.238V184.26H147.998Z" fill="#B88F25"/>
</svg>
